PathFileType	4	(X/Y/Z)	pose_F01_0-95.trc
DataRate	CameraRate	NumFrames	NumMarkers	Units	OrigDataRate	OrigDataStartFrame	OrigNumFrames
30	30	9	21	m	30	59	95
Frame#	Time	CHip			RHip			RKnee			RAnkle			RBigToe			RSmallToe			RHeel			LHip			LKnee			LAnkle			LBigToe			LSmallToe			LHeel			Neck			Nose			RShoulder			RElbow			RWrist			LShoulder			LElbow			LWrist			
		X1	Y1	Z1	X2	Y2	Z2	X3	Y3	Z3	X4	Y4	Z4	X5	Y5	Z5	X6	Y6	Z6	X7	Y7	Z7	X8	Y8	Z8	X9	Y9	Z9	X10	Y10	Z10	X11	Y11	Z11	X12	Y12	Z12	X13	Y13	Z13	X14	Y14	Z14	X15	Y15	Z15	X16	Y16	Z16	X17	Y17	Z17	X18	Y18	Z18	X19	Y19	Z19	X20	Y20	Z20	X21	Y21	Z21	
59	1.9666666666666666	-0.16729898920255837	1.8820408002583344	-0.559230173303658	-0.18452939736484353	1.8816229861910667	-0.5052193465485553	-0.20330802688687433	1.7342632114938572	-0.45965340923317816													-0.14980397466456039	1.8838825894022162	-0.6165607153516066	-0.14415974256181652	1.736443642224969	-0.6041805879722569	-0.13167905425116502	1.5858739993527617	-0.5776232755167398	-0.15300622527705218	1.5495625562206914	-0.6273531054925253	-0.1349012927790103	1.5595166906001203	-0.6425244529917737	-0.12817746231943947	1.5761208420480104	-0.553891076217504	-0.15109747274060403	2.042709024779725	-0.5800263356073452	-0.18691962626356964	2.09826450372661	-0.5760550325455953	-0.17005307276822806	2.035689273589026	-0.5035260143924363	-0.219517022936155	1.9914719082415007	-0.5320857241821979	-0.18573639062532618	2.043125657997458	-0.5498940004566375	-0.1278409980084632	2.0500395842686094	-0.6478090072469772	-0.16274991752547602	1.9887080684467224	-0.6706855204238931	-0.16671015396466013	2.045099149072424	-0.6261742022903793
60	2.0	-0.1659589312893544	1.8826261546381435	-0.5765600528186756	-0.18454710391856452	1.8796332118797168	-0.5167051358538447	-0.20334768610263645	1.7323752051726666	-0.46847479499953537													-0.15031121551311846	1.8843056978895067	-0.6316418693096649	-0.14074313411908437	1.7416177918759974	-0.6168825393364857	-0.1307777635148834	1.5857732315878343	-0.5742505185515924	-0.15317563769423626	1.5506164254612025	-0.627114495270949	-0.1350882724869495	1.5577279990665887	-0.6418118944716384	-0.12850887766184987	1.5749527980732854	-0.5532182064272805	-0.15412869634836435	2.038659580680666	-0.5800458979326444	-0.18014128585716224	2.1013832328193836	-0.5993447165361836	-0.17706750425800666	2.0344232958361363	-0.5000584590380599	-0.21844700778592882	1.9829703043313616	-0.5267670775581258	-0.1871541572240543	2.043086344684052	-0.5547214567460228	-0.12838156437115586	2.04571342208295	-0.6488432494121148	-0.15841023347863403	1.9838031890845456	-0.6743057089834118	-0.17269579489982073	2.046515688313121	-0.6187903807417499
61	2.033333333333333	-0.16488078131087885	1.8828065380563108	-0.5823658711223477	-0.18558480633443758	1.8809161549964626	-0.529182725489102	-0.19888904956618375	1.7324875411332066	-0.47325241070083446													-0.1440161162692582	1.8845620692911873	-0.6387601911482402	-0.13795709779301962	1.737505350162901	-0.6152427487443966	-0.12964567365112256	1.5858230028710183	-0.5798755793811775	-0.15348338366327474	1.5492495709541014	-0.6265583069987951	-0.13605436279589558	1.5581341576776808	-0.6450027379059214	-0.1282015569998455	1.5761882325815673	-0.5540673059393156	-0.15610877229330905	2.038517803334235	-0.5777585694796438	-0.1713093011180194	2.0947760263935953	-0.6334600323915979	-0.18302600687332707	2.033388688022136	-0.5020643434983828	-0.2199156785270617	1.9730353967105205	-0.5377931332065538	-0.20010294337483925	2.03136336131327	-0.5678990609665	-0.12756855324729893	2.0452374494703935	-0.645685884988003	-0.1541405842860098	1.979201029577302	-0.6785778246157692	-0.16292194389841538	2.041016118520195	-0.6223054792965044
62	2.066666666666667	-0.16316684039745286	1.8785628781665518	-0.5869547725170539	-0.1849150254533715	1.8750817281830425	-0.5282065767348139	-0.19793740328622925	1.7302389558489444	-0.46962343232687576													-0.14198119141297194	1.8818031880484214	-0.6437002109691888	-0.13668343645769132	1.735171481501751	-0.6120004793873689	-0.12964492879439612	1.5859057782630368	-0.5798404304788827	-0.15254012089368188	1.5490992029318678	-0.6232115845495441	-0.13505039843770314	1.5575848645698602	-0.6417481592274369	-0.12822792962512503	1.5764946211442317	-0.5540709439859643	-0.1580573420016134	2.037312878445903	-0.58409314098177	-0.16942821233012448	2.1026145024849106	-0.6492286978771258	-0.19079771412352087	2.0324613674559733	-0.5096281639382295	-0.22034795874889157	1.9671210249005924	-0.5287327108793188	-0.20689536826046068	2.025922493929438	-0.5896867939107278	-0.1250833264183708	2.0437658027563703	-0.6563105935913272	-0.1373308758373416	1.9682255681834617	-0.6969334453270242	-0.15955841927738745	2.034195110648612	-0.6593464671671427
63	2.1	-0.1662122168348892	1.8826180310481757	-0.5797037011082634	-0.18695683460480347	1.8779685982160395	-0.5262073006675737	-0.1988367293066371	1.7288395282948499	-0.46389187277632593													-0.14657409017805392	1.8861327421642706	-0.6307450227753166	-0.13577454896289198	1.7401702458149193	-0.6092602490625487	-0.1287675128370938	1.586106191167111	-0.5764608068596359	-0.15318038255552607	1.5507796445867976	-0.6271268419302487	-0.1350832414732996	1.5608640013397646	-0.6422794297762572	-0.12822611996824423	1.576558111564556	-0.5537983151256886	-0.1607790911897928	2.0404870226478886	-0.5849852808389423	-0.18465223497029468	2.102486088735362	-0.6536620687574244	-0.19253307936697542	2.036554077537915	-0.5164388629011579	-0.21258092105891999	1.9502726235041568	-0.5082614297966991	-0.2196512926610933	2.003065847804906	-0.5807315251035949	-0.12872984075485908	2.045766864212788	-0.6599505740135123	-1.531243863170057	1.8761782791866677	0.8173839156697402	-0.1561948946563595	2.027374102777029	-0.696387455037781
64	2.1333333333333333	-0.16550938076818025	1.8744613420775496	-0.5752801411118217	-0.18818797769342005	1.872269376741169	-0.5199233586581803	-0.197643251652403	1.7270581722077438	-0.4605750816093307													-0.142887050757626	1.877850437360623	-0.6255738575152062	-0.13457201986927322	1.7373934021057649	-0.6062429219069353	-0.13082132484712078	1.5860038573478992	-0.5742624617574822	-0.1525630878382219	1.5492044790357151	-0.6231558063458719	-0.13633332582767255	1.5577856360469569	-0.6362719415792168	-0.12844303025162335	1.5776922435977527	-0.5536167773805578	-0.1650563891062644	2.0398365284835385	-0.6002066312208768	-0.19853934197236392	2.099799305184151	-0.6435585595284903	-0.19621761603247811	2.0385066992995537	-0.5291175352384261	-0.2045873846678759	1.9502707170165754	-0.4999292457464078	-1.567835707924295	1.8634345359277584	0.8570496984958738	-0.1311107330298726	2.0424331772803783	-0.6686118857603006	-0.8260289705197776	1.920306784568471	0.071146993721098	-0.15532438264268128	1.963084814935379	-0.6927383057160023
65	2.1666666666666665	-0.1686998342043776	1.8752522495041768	-0.5764515463359253	-0.18838935661188577	1.8733457637095823	-0.5202094801916652	-0.19571033355329123	1.7276934216710373	-0.4626594400980677													-0.15190081631594143	1.8777538227805168	-0.6282422794049537	-0.13690002860911213	1.7361826252274615	-0.603625251531168	-0.12895212588573973	1.5858810447338747	-0.56764313106675	-0.15324505398448285	1.5506917721816103	-0.6270577579410219	-0.13530750674946806	1.559146741265759	-0.6415954904717509	-0.12808328848144482	1.5761242217070086	-0.553708454318141	-0.16817413755836602	2.038003395681811	-0.6010913144244451	-0.20196108582838407	2.097192348874827	-0.6360137952904481	-0.19848619511517457	2.0372003266420706	-0.5276140759478692	-0.20391075610179552	1.9603806549440945	-0.4904649082787801	-0.22823085640687196	1.8957819413102446	-0.5167513825995439	-0.13420204366502425	2.0412054627456375	-0.6695502441291027	-0.12081407786949835	1.9644352899502742	-0.6750899282275443	-0.1544538706290031	1.898795527093729	-0.6890891563942235
66	2.2	-0.17288046502438806	1.8674181554959344	-0.5705863387559476	-0.19061229666284799	1.8647126786693549	-0.5162962177412745	-0.2004328817683062	1.7220348905707106	-0.456817550551036													-0.15241697680873553	1.8707677778825322	-0.6272574978724889	-0.13859135702346584	1.7299229633700466	-0.6093145974139798	-0.12906493626064142	1.5847449378935066	-0.5759080315125622	-0.15350869433709338	1.5493332316875292	-0.6264611728063504	-0.13728800414518014	1.557980657852561	-0.6396500218787108	-0.1264325709138771	1.5752814437914622	-0.5554761185876267	-0.17244735863022695	2.0367358371669853	-0.5965001906786004	-0.19847311402211978	2.098938596145398	-0.6431445267304661	-0.2006059689619512	2.034290433764283	-0.5163167927249123	-0.21487592635176891	1.9494525097304876	-0.49762240354489223	-0.23216610237203236	1.8752505965968211	-0.5170346219573148	-0.13720442845741132	2.0384613765877337	-0.6693321730262706	-0.12987828355273023	1.9550664777083664	-0.6764697277825112	-0.14249223225515736	1.8795390500966496	-0.7056954389491737
67	2.2333333333333334	-0.17179376899111826	1.8699816703533318	-0.5766140346699522	-0.19159736356230989	1.867344770161427	-0.5201840910804479	-0.19835051989616087	1.723297064032314	-0.4594698616362147													-0.15314030732803252	1.8725534710312786	-0.6308080425660306	-0.13854339312765995	1.7292126163769468	-0.6093041838779826	-0.128775304794288	1.586151851225363	-0.5764347236549473	-0.15327277113761334	1.5507306804659589	-0.6270195056012061	-0.1372300794272639	1.5606234378457096	-0.6400181318217782	-0.12839753531123985	1.5778271722426442	-0.5535883390705264	-0.1707257962074439	2.036810808438293	-0.5902658760869601	-0.1983689576421914	2.100403181503267	-0.6429327688869613	-0.19872980984488645	2.032751464488947	-0.5094844704318953	-0.21383030151488638	1.9492946670448967	-0.5027590689987238	-0.24143095106773949	1.8811166248061129	-0.5389767260843816	-0.13646024484660288	2.0413336923003316	-0.6670511784165134	-0.13133404710790245	1.9586633534948468	-0.6827497738493203	-0.13094595352654545	1.8730614047907266	-0.69265816170004
